<svg width="22" height="22" viewBox="0 0 512 512" fill="none" xmlns="http://www.w3.org/2000/svg">
  <!-- Chip pins - top -->
  <rect x="120" y="20" width="16" height="40" rx="4" fill="black"/>
  <rect x="152" y="20" width="16" height="40" rx="4" fill="black"/>
  <rect x="184" y="20" width="16" height="40" rx="4" fill="black"/>
  <rect x="216" y="20" width="16" height="40" rx="4" fill="black"/>
  <rect x="280" y="20" width="16" height="40" rx="4" fill="black"/>
  <rect x="312" y="20" width="16" height="40" rx="4" fill="black"/>
  <rect x="344" y="20" width="16" height="40" rx="4" fill="black"/>
  <rect x="376" y="20" width="16" height="40" rx="4" fill="black"/>
  <!-- Chip pins - bottom -->
  <rect x="120" y="452" width="16" height="40" rx="4" fill="black"/>
  <rect x="152" y="452" width="16" height="40" rx="4" fill="black"/>
  <rect x="184" y="452" width="16" height="40" rx="4" fill="black"/>
  <rect x="216" y="452" width="16" height="40" rx="4" fill="black"/>
  <rect x="280" y="452" width="16" height="40" rx="4" fill="black"/>
  <rect x="312" y="452" width="16" height="40" rx="4" fill="black"/>
  <rect x="344" y="452" width="16" height="40" rx="4" fill="black"/>
  <rect x="376" y="452" width="16" height="40" rx="4" fill="black"/>
  <!-- Chip pins - left -->
  <rect x="20" y="120" width="40" height="16" rx="4" fill="black"/>
  <rect x="20" y="152" width="40" height="16" rx="4" fill="black"/>
  <rect x="20" y="184" width="40" height="16" rx="4" fill="black"/>
  <rect x="20" y="216" width="40" height="16" rx="4" fill="black"/>
  <rect x="20" y="280" width="40" height="16" rx="4" fill="black"/>
  <rect x="20" y="312" width="40" height="16" rx="4" fill="black"/>
  <rect x="20" y="344" width="40" height="16" rx="4" fill="black"/>
  <rect x="20" y="376" width="40" height="16" rx="4" fill="black"/>
  <!-- Chip pins - right -->
  <rect x="452" y="120" width="40" height="16" rx="4" fill="black"/>
  <rect x="452" y="152" width="40" height="16" rx="4" fill="black"/>
  <rect x="452" y="184" width="40" height="16" rx="4" fill="black"/>
  <rect x="452" y="216" width="40" height="16" rx="4" fill="black"/>
  <rect x="452" y="280" width="40" height="16" rx="4" fill="black"/>
  <rect x="452" y="312" width="40" height="16" rx="4" fill="black"/>
  <rect x="452" y="344" width="40" height="16" rx="4" fill="black"/>
  <rect x="452" y="376" width="40" height="16" rx="4" fill="black"/>
  <!-- Chip body -->
  <rect x="56" y="56" width="400" height="400" rx="40" fill="black"/>
  <!-- "2" cutout shape - the stylized n/2 mark -->
  <path d="M168 340 L168 240 C168 186 212 148 256 148 L280 148 C324 148 344 186 344 220 L344 340 C344 364 326 380 304 380 C282 380 264 364 264 340 L264 240 C264 228 258 220 248 220 L240 220 C230 220 224 228 224 240 L224 340 C224 364 206 380 184 380 C174 380 168 364 168 340 Z" fill="white"/>
</svg>
